<svg xmlns="http://www.w3.org/2000/svg" width="25" height="24" fill="none" viewBox="0 0 25 24" id="unreal-engine"><rect width="24" height="24" x=".463" fill="url(#paint0_linear_302_5185)" rx="8"></rect><path fill="#fff" fill-rule="evenodd" d="M12 20C16.4183 20 20 16.4183 20 12C20 7.58172 16.4183 4 12 4C7.58172 4 4 7.58172 4 12C4 16.4183 7.58172 20 12 20ZM5.86009 13.1521C6.38223 11.4551 7.7008 8.16224 11.147 6.90909V14.3497C11.2775 14.4801 11.6169 14.7412 11.9302 14.7412C12.418 14.7412 13.105 14.3497 13.105 14.3497V9.65032C13.5083 8.80726 15.3764 7.30065 16.6295 7.30065C15.8704 8.17567 15.5154 8.68944 15.0631 9.65032V14.3497C15.5852 14.4801 16.6295 14.3497 17.4127 13.5664C16.7791 15.0071 15.0631 16.6993 14.2799 16.6993L13.105 15.9161L11.9302 17.0909C10.7553 17.0909 8.79731 16.3077 8.01409 15.1329H9.18892V10.6461C7.76407 10.4508 7.11135 11.3534 5.86009 13.1521Z" clip-rule="evenodd"></path><defs><linearGradient id="paint0_linear_302_5185" x1=".463" x2="24.463" y1="12" y2="12" gradientUnits="userSpaceOnUse"><stop stop-color="#ED6D6B"></stop><stop offset="1" stop-color="#F0B076"></stop></linearGradient></defs></svg>